# xmcd CD database file
#
# Track frame offsets:
#	150
#	30897
#	56385
#	82554
#	102567
#	125782
#	147625
#	168525
#	200065
#	226072
#	250847
#
# Disc length: 3686 seconds
#
# Revision: 1
# Processed by: cddbd v1.5.1PL0 Copyright (c) Steve Scherf et al.
# Submitted via: jetAudio 5
#
DISCID=8f0e640b
DTITLE=Various Artist - Ha noi mua vang nhung con mua
DYEAR=1900
DGENRE=
TTITLE0=Ha noi dem tro gio
TTITLE1=Ha noi va toi
TTITLE2=Co phai em ... mua thu Ha noi
TTITLE3=Hoa sua
TTITLE4=Chieu phu Tay Ho
TTITLE5=Ha noi mua vang nhung con mua
TTITLE6=Chi toi
TTITLE7=Lang dang chieu dong Ha noi
TTITLE8=Noi buon
TTITLE9=Ngay ve
TTITLE10=Dem mua dong Ha noi
EXTD=
EXTT0=
EXTT1=
EXTT2=
EXTT3=
EXTT4=
EXTT5=
EXTT6=
EXTT7=
EXTT8=
EXTT9=
EXTT10=
PLAYORDER=
